<svg width="474" height="121" viewBox="0 0 474 121" fill="none" xmlns="http://www.w3.org/2000/svg">
<path d="M171.797 74.9999C171.797 76.447 171.497 77.7617 170.897 78.9441C170.297 80.1088 169.494 81.1147 168.488 81.9617C167.482 82.8088 166.327 83.4618 165.021 83.9206C163.715 84.3794 162.356 84.6088 160.944 84.6088C159.003 84.6088 157.221 84.2471 155.597 83.5235C153.974 82.8 152.685 81.7323 151.732 80.3206V84H148.662V73.4911H151.732C151.732 74.6735 152.006 75.7588 152.553 76.747C153.1 77.7176 153.797 78.5558 154.644 79.2617C155.491 79.9676 156.462 80.5235 157.556 80.9294C158.668 81.3176 159.797 81.5117 160.944 81.5117C161.968 81.5117 162.912 81.3706 163.777 81.0882C164.641 80.7882 165.4 80.3735 166.053 79.8441C166.706 79.297 167.218 78.6353 167.588 77.8588C167.977 77.0823 168.171 76.1999 168.171 75.2117C168.171 74.0999 167.924 73.147 167.43 72.3529C166.953 71.5587 166.3 70.8793 165.471 70.3146C164.659 69.7499 163.741 69.2734 162.718 68.8852C161.694 68.4793 160.653 68.0822 159.594 67.694C158.341 67.2528 157.088 66.794 155.835 66.3175C154.582 65.8234 153.462 65.2057 152.474 64.4646C151.485 63.7234 150.682 62.8234 150.065 61.7645C149.447 60.6881 149.138 59.3557 149.138 57.7675C149.138 56.3557 149.438 55.1027 150.038 54.0086C150.638 52.8968 151.424 51.9615 152.394 51.2027C153.365 50.4439 154.494 49.8703 155.782 49.4821C157.071 49.0762 158.394 48.8733 159.753 48.8733C161.43 48.8733 162.974 49.2174 164.385 49.9056C165.815 50.5939 166.927 51.6439 167.721 53.0557V49.4556H170.924V59.3292H167.721C167.721 58.288 167.5 57.3174 167.059 56.4174C166.635 55.4998 166.053 54.7233 165.312 54.088C164.571 53.4351 163.724 52.9233 162.771 52.5527C161.818 52.1645 160.812 51.9704 159.753 51.9704C158.818 51.9704 157.927 52.0762 157.079 52.288C156.232 52.4998 155.491 52.8439 154.856 53.3204C154.221 53.7792 153.709 54.3792 153.321 55.1204C152.95 55.8616 152.765 56.7439 152.765 57.7675C152.765 58.6675 152.985 59.4351 153.427 60.0704C153.885 60.7057 154.494 61.2704 155.253 61.7645C156.012 62.241 156.885 62.6822 157.874 63.0881C158.879 63.4763 159.903 63.8734 160.944 64.2793C162.25 64.7381 163.547 65.2499 164.835 65.8146C166.124 66.3793 167.28 67.0587 168.303 67.8528C169.327 68.6469 170.165 69.6264 170.818 70.7911C171.471 71.9381 171.797 73.3411 171.797 74.9999ZM202.265 71.6911C202.265 73.6146 201.965 75.3617 201.365 76.9323C200.765 78.5029 199.918 79.8617 198.824 81.0088C197.747 82.1382 196.442 83.0206 194.906 83.6559C193.371 84.2912 191.65 84.6088 189.744 84.6088C188.439 84.6088 187.168 84.3706 185.933 83.8941C184.715 83.4176 183.577 82.7118 182.518 81.7765V93.8736H178.891V59.3292H182.518V61.6057C184.759 59.6998 187.168 58.7469 189.744 58.7469C191.65 58.7469 193.371 59.0645 194.906 59.6998C196.442 60.3175 197.747 61.2087 198.824 62.3734C199.918 63.5204 200.765 64.8969 201.365 66.5028C201.965 68.0911 202.265 69.8205 202.265 71.6911ZM198.639 71.6911C198.639 70.3146 198.444 69.0264 198.056 67.8264C197.686 66.6087 197.121 65.5587 196.362 64.6763C195.603 63.794 194.668 63.0969 193.556 62.5851C192.462 62.0734 191.191 61.8175 189.744 61.8175C188.368 61.8175 187.08 62.0734 185.88 62.5851C184.697 63.0969 183.577 63.9263 182.518 65.0734V78.3088C183.577 79.4558 184.697 80.2764 185.88 80.7706C187.08 81.2647 188.368 81.5117 189.744 81.5117C191.191 81.5117 192.462 81.2559 193.556 80.7441C194.668 80.2323 195.603 79.5353 196.362 78.6529C197.121 77.7705 197.686 76.7382 198.056 75.5558C198.444 74.3558 198.639 73.0676 198.639 71.6911ZM207.136 77.3294C207.136 75.7764 207.524 74.4793 208.3 73.4382C209.077 72.3793 210.092 71.5499 211.345 70.9499C212.615 70.3323 214.062 69.8911 215.686 69.6264C217.327 69.344 218.995 69.2028 220.689 69.2028C221.342 69.2028 221.924 69.2117 222.436 69.2293C222.965 69.2469 223.459 69.2734 223.918 69.3087C224.395 69.344 224.871 69.3881 225.348 69.4411C225.824 69.494 226.345 69.5558 226.909 69.6264V67.8528C226.909 66.6528 226.645 65.6646 226.115 64.8881C225.604 64.1116 224.968 63.5028 224.209 63.0616C223.451 62.6028 222.656 62.2851 221.827 62.1087C220.998 61.9145 220.292 61.8175 219.709 61.8175C217.874 61.8175 216.18 62.0645 214.627 62.5587C213.074 63.0528 211.627 63.7146 210.286 64.544L208.645 61.8175C210.127 60.9175 211.786 60.1851 213.621 59.6204C215.474 59.0381 217.503 58.7469 219.709 58.7469C221.051 58.7469 222.365 58.9233 223.654 59.2763C224.959 59.6116 226.124 60.141 227.148 60.8645C228.189 61.5704 229.018 62.5057 229.636 63.6704C230.254 64.8352 230.562 66.2293 230.562 67.8528V84H226.909V79.8706C226.274 80.6647 225.551 81.3617 224.739 81.9617C223.945 82.5618 223.106 83.0559 222.224 83.4441C221.342 83.8147 220.459 84.0971 219.577 84.2912C218.695 84.5029 217.856 84.6088 217.062 84.6088C213.798 84.6088 211.327 83.9824 209.65 82.7294C207.974 81.4765 207.136 79.6764 207.136 77.3294ZM217.062 81.5117C218.58 81.5117 219.939 81.2912 221.139 80.85C222.356 80.3911 223.389 79.8264 224.236 79.1558C225.083 78.4853 225.736 77.7705 226.195 77.0117C226.671 76.2529 226.909 75.5646 226.909 74.947V72.6176C225.727 72.4411 224.589 72.344 223.495 72.3264C222.418 72.3087 221.483 72.2999 220.689 72.2999C219.383 72.2999 218.121 72.3881 216.903 72.5646C215.703 72.7411 214.653 73.0323 213.753 73.4382C212.853 73.8264 212.13 74.3382 211.583 74.9735C211.036 75.6088 210.762 76.3941 210.762 77.3294C210.762 78.3705 211.265 79.3323 212.271 80.2147C213.295 81.0794 214.892 81.5117 217.062 81.5117ZM260.527 79.2882C259.486 80.9117 258.057 82.2088 256.239 83.1794C254.439 84.1324 252.295 84.6088 249.807 84.6088C247.883 84.6088 246.118 84.2912 244.512 83.6559C242.907 83.0206 241.53 82.1382 240.383 81.0088C239.254 79.8617 238.371 78.5029 237.736 76.9323C237.101 75.3617 236.783 73.6146 236.783 71.6911C236.783 69.8205 237.074 68.0911 237.657 66.5028C238.239 64.8969 239.068 63.5293 240.145 62.3998C241.221 61.2528 242.536 60.3616 244.089 59.7263C245.66 59.0733 247.398 58.7469 249.304 58.7469C250.063 58.7469 250.839 58.8351 251.633 59.0116C252.427 59.1881 253.177 59.4616 253.883 59.8322C254.589 60.1851 255.224 60.6175 255.789 61.1292C256.354 61.6234 256.777 62.2145 257.06 62.9028V59.3292H260.316V69.2028H257.06C257.06 68.1087 256.857 67.1116 256.451 66.2116C256.063 65.3116 255.524 64.5352 254.836 63.8822C254.148 63.2293 253.327 62.7263 252.374 62.3734C251.421 62.0028 250.398 61.8175 249.304 61.8175C247.821 61.8175 246.524 62.0734 245.412 62.5851C244.318 63.0969 243.401 63.794 242.66 64.6763C241.918 65.5587 241.354 66.5999 240.965 67.7999C240.595 68.9822 240.41 70.2793 240.41 71.6911C240.41 73.1029 240.621 74.4088 241.045 75.6088C241.486 76.7911 242.112 77.8147 242.924 78.6794C243.754 79.5441 244.742 80.2323 245.889 80.7441C247.054 81.2559 248.36 81.5117 249.807 81.5117C251.642 81.5117 253.274 81.15 254.704 80.4264C256.133 79.7029 257.227 78.7411 257.986 77.5411L260.527 79.2882ZM270.004 72.9352C270.269 75.547 271.222 77.6294 272.863 79.1823C274.504 80.7353 276.639 81.5117 279.269 81.5117C281.122 81.5117 282.772 81.1323 284.219 80.3735C285.666 79.6147 286.751 78.6705 287.475 77.5411L290.016 79.2882C288.78 81.0176 287.307 82.3412 285.595 83.2588C283.883 84.1588 281.775 84.6088 279.269 84.6088C277.363 84.6088 275.616 84.2912 274.027 83.6559C272.439 83.0206 271.063 82.1382 269.898 81.0088C268.751 79.8617 267.86 78.5029 267.224 76.9323C266.589 75.3617 266.271 73.6146 266.271 71.6911C266.271 69.8205 266.554 68.0999 267.119 66.5293C267.701 64.941 268.53 63.5734 269.607 62.4263C270.701 61.2616 272.024 60.3616 273.577 59.7263C275.13 59.0733 276.869 58.7469 278.792 58.7469C280.892 58.7469 282.727 59.0998 284.298 59.8057C285.869 60.5116 287.175 61.491 288.216 62.744C289.275 63.9793 290.051 65.4616 290.545 67.1911C291.057 68.9205 291.313 70.8352 291.313 72.9352H270.004ZM287.475 69.8381C287.069 67.1381 286.089 65.1263 284.536 63.8028C282.983 62.4793 281.069 61.8175 278.792 61.8175C277.627 61.8175 276.551 62.0116 275.563 62.3998C274.574 62.7704 273.701 63.3087 272.942 64.0146C272.183 64.7204 271.548 65.5763 271.036 66.5822C270.524 67.5705 270.198 68.6558 270.057 69.8381H287.475ZM319.345 84H297.269V49.4556H300.895V80.9029H319.345V84ZM350.872 71.744C350.872 73.6676 350.563 75.4146 349.946 76.9852C349.346 78.5558 348.472 79.9059 347.325 81.0353C346.196 82.147 344.837 83.0206 343.249 83.6559C341.66 84.2912 339.887 84.6088 337.928 84.6088C336.004 84.6088 334.248 84.2912 332.66 83.6559C331.072 83.0206 329.704 82.147 328.557 81.0353C327.428 79.9059 326.554 78.5558 325.937 76.9852C325.337 75.4146 325.037 73.6676 325.037 71.744C325.037 69.8734 325.337 68.1352 325.937 66.5293C326.554 64.9057 327.428 63.5293 328.557 62.3998C329.704 61.2528 331.072 60.3616 332.66 59.7263C334.248 59.0733 336.004 58.7469 337.928 58.7469C339.887 58.7469 341.66 59.0733 343.249 59.7263C344.837 60.3616 346.196 61.2528 347.325 62.3998C348.472 63.5293 349.346 64.9057 349.946 66.5293C350.563 68.1352 350.872 69.8734 350.872 71.744ZM347.246 71.744C347.246 70.3323 347.034 69.0352 346.61 67.8528C346.204 66.6528 345.596 65.6028 344.784 64.7028C343.972 63.8028 342.984 63.0969 341.819 62.5851C340.672 62.0734 339.375 61.8175 337.928 61.8175C336.481 61.8175 335.175 62.0734 334.01 62.5851C332.863 63.0969 331.893 63.8028 331.098 64.7028C330.304 65.6028 329.695 66.6528 329.272 67.8528C328.866 69.0352 328.663 70.3323 328.663 71.744C328.663 73.1558 328.866 74.4617 329.272 75.6617C329.695 76.8441 330.304 77.8676 331.098 78.7323C331.893 79.597 332.863 80.2764 334.01 80.7706C335.175 81.2647 336.481 81.5117 337.928 81.5117C339.375 81.5117 340.672 81.2647 341.819 80.7706C342.984 80.2764 343.972 79.597 344.784 78.7323C345.596 77.8676 346.204 76.8441 346.61 75.6617C347.034 74.4617 347.246 73.1558 347.246 71.744ZM378.534 83.7353C378.534 85.4294 378.243 86.9383 377.661 88.2618C377.078 89.5853 376.258 90.7059 375.199 91.6236C374.158 92.5412 372.922 93.2383 371.493 93.7148C370.081 94.2089 368.502 94.456 366.755 94.456C364.302 94.456 362.21 93.9971 360.481 93.0795C358.769 92.1618 357.287 90.8383 356.034 89.1089L358.575 87.15C359.334 88.2971 360.428 89.2589 361.857 90.0353C363.287 90.8118 364.919 91.2001 366.755 91.2001C369.26 91.2001 371.237 90.5648 372.684 89.2942C374.149 88.0412 374.881 86.2235 374.881 83.8412V81.1941C372.728 83.1 370.275 84.0529 367.522 84.0529C363.657 84.0529 360.622 82.95 358.416 80.7441C356.21 78.5382 355.107 75.5205 355.107 71.6911C355.107 69.8205 355.39 68.0999 355.954 66.5293C356.537 64.941 357.357 63.5734 358.416 62.4263C359.493 61.2616 360.799 60.3616 362.334 59.7263C363.869 59.0733 365.599 58.7469 367.522 58.7469C368.863 58.7469 370.16 58.9851 371.413 59.4616C372.684 59.9204 373.84 60.6175 374.881 61.5528V59.3292H378.534V83.7353ZM374.881 65.0734C373.84 63.9263 372.693 63.0969 371.44 62.5851C370.205 62.0734 368.899 61.8175 367.522 61.8175C366.075 61.8175 364.796 62.0734 363.684 62.5851C362.59 63.0969 361.681 63.794 360.957 64.6763C360.234 65.5587 359.678 66.6087 359.29 67.8264C358.919 69.0264 358.734 70.3146 358.734 71.6911C358.734 74.5146 359.466 76.7647 360.931 78.4411C362.396 80.1176 364.593 80.9559 367.522 80.9559C368.899 80.9559 370.205 80.7 371.44 80.1882C372.693 79.6588 373.84 78.8117 374.881 77.647V65.0734ZM399.552 54.4057H394.628V49.4556H399.552V54.4057ZM404.475 84H389.678V80.9029H395.264V62.4263H389.678V59.3292H398.917V80.9029H404.475V84ZM438.093 79.2882C437.052 80.9117 435.623 82.2088 433.805 83.1794C432.005 84.1324 429.861 84.6088 427.373 84.6088C425.449 84.6088 423.684 84.2912 422.078 83.6559C420.473 83.0206 419.096 82.1382 417.949 81.0088C416.82 79.8617 415.937 78.5029 415.302 76.9323C414.667 75.3617 414.349 73.6146 414.349 71.6911C414.349 69.8205 414.64 68.0911 415.223 66.5028C415.805 64.8969 416.634 63.5293 417.711 62.3998C418.787 61.2528 420.102 60.3616 421.655 59.7263C423.226 59.0733 424.964 58.7469 426.87 58.7469C427.629 58.7469 428.405 58.8351 429.199 59.0116C429.993 59.1881 430.743 59.4616 431.449 59.8322C432.155 60.1851 432.79 60.6175 433.355 61.1292C433.92 61.6234 434.343 62.2145 434.626 62.9028V59.3292H437.882V69.2028H434.626C434.626 68.1087 434.423 67.1116 434.017 66.2116C433.629 65.3116 433.09 64.5352 432.402 63.8822C431.714 63.2293 430.893 62.7263 429.94 62.3734C428.987 62.0028 427.964 61.8175 426.87 61.8175C425.387 61.8175 424.09 62.0734 422.979 62.5851C421.884 63.0969 420.967 63.794 420.226 64.6763C419.484 65.5587 418.92 66.5999 418.531 67.7999C418.161 68.9822 417.976 70.2793 417.976 71.6911C417.976 73.1029 418.187 74.4088 418.611 75.6088C419.052 76.7911 419.678 77.8147 420.49 78.6794C421.32 79.5441 422.308 80.2323 423.455 80.7441C424.62 81.2559 425.926 81.5117 427.373 81.5117C429.208 81.5117 430.84 81.15 432.27 80.4264C433.699 79.7029 434.793 78.7411 435.552 77.5411L438.093 79.2882ZM458.741 84H453.817V79.0764H458.741V84Z" fill="black"/>
<path d="M55.5 0L110.273 32.8636L55.5 65.7273L0.72728 32.8636L55.5 0Z" fill="#9BC8BF"/>
<path d="M0.72728 32.8636L55.5 65.7273V120.5L0.72728 87.6364V32.8636Z" fill="#56B651"/>
<path d="M110.273 32.8636L55.5 65.7273V120.5L110.273 87.6364V32.8636Z" fill="#0B2447"/>
</svg>
